<?xml version="1.0" encoding="UTF-8"?>
<svg xmlns="http://www.w3.org/2000/svg" xmlns:xlink="http://www.w3.org/1999/xlink" width="56pt" height="56pt" viewBox="0 0 56 56" version="1.1">
<g id="surface1">
<path style=" stroke:none;fill-rule:nonzero;fill:rgb(0%,0%,0%);fill-opacity:1;" d="M 27.925781 53.054688 C 27.925781 53.054688 28.089844 53.054688 28.089844 53.054688 C 34.792969 53 41.105469 50.375 45.796875 45.574219 C 50.488281 40.769531 53.113281 34.457031 53.054688 27.757812 C 52.945312 14.019531 41.71875 2.792969 27.925781 2.792969 C 13.90625 2.90625 2.683594 14.242188 2.792969 28.089844 C 2.90625 41.832031 14.132812 53.054688 27.925781 53.054688 Z M 44.457031 25.414062 C 44.457031 24.574219 45.125 23.90625 45.964844 23.90625 C 46.800781 23.90625 47.472656 24.574219 47.472656 25.414062 L 47.472656 30.382812 C 47.472656 31.222656 46.800781 31.890625 45.964844 31.890625 C 45.125 31.890625 44.457031 31.222656 44.457031 30.382812 Z M 39.933594 19.773438 C 39.933594 18.933594 40.601562 18.261719 41.441406 18.261719 C 42.277344 18.261719 42.945312 18.933594 42.945312 19.773438 L 42.945312 36.023438 C 42.945312 36.863281 42.277344 37.53125 41.441406 37.53125 C 40.601562 37.53125 39.933594 36.863281 39.933594 36.023438 Z M 35.410156 23.511719 C 35.410156 22.675781 36.078125 22.007812 36.917969 22.007812 C 37.753906 22.007812 38.421875 22.675781 38.421875 23.511719 L 38.421875 32.339844 C 38.421875 33.175781 37.753906 33.84375 36.917969 33.84375 C 36.078125 33.84375 35.410156 33.175781 35.410156 32.339844 Z M 30.941406 20.664062 C 30.941406 19.828125 31.609375 19.15625 32.449219 19.15625 C 33.285156 19.15625 33.957031 19.828125 33.957031 20.664062 L 33.957031 35.1875 C 33.957031 36.023438 33.285156 36.691406 32.449219 36.691406 C 31.609375 36.691406 30.941406 36.023438 30.941406 35.1875 Z M 26.414062 15.917969 C 26.414062 15.078125 27.085938 14.410156 27.925781 14.410156 C 28.761719 14.410156 29.433594 15.078125 29.433594 15.917969 L 29.433594 39.875 C 29.433594 40.714844 28.761719 41.386719 27.925781 41.386719 C 27.085938 41.386719 26.414062 40.714844 26.414062 39.875 Z M 21.890625 13.851562 C 21.890625 13.015625 22.5625 12.34375 23.402344 12.34375 C 24.238281 12.34375 24.910156 13.015625 24.910156 13.851562 L 24.910156 42 C 24.910156 42.835938 24.238281 43.503906 23.402344 43.503906 C 22.5625 43.503906 21.890625 42.835938 21.890625 42 Z M 17.425781 19.042969 C 17.425781 18.207031 18.097656 17.539062 18.933594 17.539062 C 19.773438 17.539062 20.441406 18.207031 20.441406 19.042969 L 20.441406 36.75 C 20.441406 37.585938 19.773438 38.257812 18.933594 38.257812 C 18.097656 38.257812 17.425781 37.585938 17.425781 36.75 Z M 12.902344 25.414062 C 12.902344 24.574219 13.574219 23.90625 14.410156 23.90625 C 15.25 23.90625 15.917969 24.574219 15.917969 25.414062 L 15.917969 30.382812 C 15.917969 31.222656 15.25 31.890625 14.410156 31.890625 C 13.574219 31.890625 12.902344 31.222656 12.902344 30.382812 Z M 8.378906 31.222656 L 8.378906 24.628906 C 8.378906 23.792969 9.050781 23.121094 9.886719 23.121094 C 10.726562 23.121094 11.394531 23.792969 11.394531 24.628906 L 11.394531 31.164062 C 11.394531 32 10.726562 32.671875 9.886719 32.671875 C 9.050781 32.671875 8.378906 32.058594 8.378906 31.222656 Z M 8.378906 31.222656 "/>
</g>
</svg>
